<svg width="46.000000" height="36.000000" viewBox="0 0 46 36" fill="none" xmlns="http://www.w3.org/2000/svg" xmlns:xlink="http://www.w3.org/1999/xlink">
	<desc>
			Created with Pixso.
	</desc>
	<defs>
		<clipPath id="clip309_36">
			<rect id="menu-burger" width="46.000000" height="36.000000" fill="white" fill-opacity="0"/>
		</clipPath>
	</defs>
	<rect id="menu-burger" width="46.000000" height="36.000000" fill="#FFFFFF" fill-opacity="0"/>
	<g clip-path="url(#clip309_36)">
		<path id="Vector" d="M6.7085 7.5C6.2002 7.5 5.71265 7.65808 5.35303 7.93933C4.99365 8.2207 4.79175 8.60217 4.79175 9C4.79175 9.39783 4.99365 9.7793 5.35303 10.0607C5.71265 10.3419 6.2002 10.5 6.7085 10.5L39.2917 10.5C39.8 10.5 40.2876 10.3419 40.647 10.0607C41.0066 9.7793 41.2085 9.39783 41.2085 9C41.2085 8.60217 41.0066 8.2207 40.647 7.93933C40.2876 7.65808 39.8 7.5 39.2917 7.5L6.7085 7.5ZM4.79175 18C4.79175 17.6022 4.99365 17.2207 5.35303 16.9393C5.71265 16.6581 6.2002 16.5 6.7085 16.5L39.2917 16.5C39.8 16.5 40.2876 16.6581 40.647 16.9393C41.0066 17.2207 41.2085 17.6022 41.2085 18C41.2085 18.3978 41.0066 18.7793 40.647 19.0607C40.2876 19.3419 39.8 19.5 39.2917 19.5L6.7085 19.5C6.2002 19.5 5.71265 19.3419 5.35303 19.0607C4.99365 18.7793 4.79175 18.3978 4.79175 18ZM4.79175 27.0015C4.79175 26.6036 4.99365 26.2222 5.35303 25.9408C5.71265 25.6595 6.2002 25.5015 6.7085 25.5015L39.2917 25.5015C39.8 25.5015 40.2876 25.6595 40.647 25.9408C41.0066 26.2222 41.2085 26.6036 41.2085 27.0015C41.2085 27.3993 41.0066 27.7809 40.647 28.0621C40.2876 28.3435 39.8 28.5015 39.2917 28.5015L6.7085 28.5015C6.2002 28.5015 5.71265 28.3435 5.35303 28.0621C4.99365 27.7809 4.79175 27.3993 4.79175 27.0015Z" fill="#FFFFFF" fill-opacity="1.000000" fill-rule="evenodd"/>
	</g>
</svg>
